<?xml version="1.0" encoding="UTF-8"?>
<svg xmlns="http://www.w3.org/2000/svg" xmlns:xlink="http://www.w3.org/1999/xlink" viewBox="0 0 690.6 630">
  <defs>
    <style>
      .cls-1 {
        fill: url(#_名称未設定グラデーション_6);
      }

      .cls-2 {
        fill: url(#_名称未設定グラデーション_316);
      }

      .cls-3 {
        isolation: isolate;
      }

      .cls-4 {
        fill: #beebde;
        mix-blend-mode: multiply;
      }

      .cls-5 {
        fill: url(#_名称未設定グラデーション_154);
      }

      .cls-6 {
        fill: url(#_名称未設定グラデーション_1352);
      }
    </style>
    <linearGradient id="_名称未設定グラデーション_316" data-name="名称未設定グラデーション 316" x1="557" y1="-50.55" x2="451.25" y2="-78.89" gradientTransform="translate(13.32 511.37)" gradientUnits="userSpaceOnUse">
      <stop offset="0" stop-color="#7be8ff"/>
      <stop offset="1" stop-color="#f68dff"/>
    </linearGradient>
    <linearGradient id="_名称未設定グラデーション_6" data-name="名称未設定グラデーション 6" x1="283.06" y1="517.8" x2="283.06" y2="89.97" gradientUnits="userSpaceOnUse">
      <stop offset="0" stop-color="#00c74c"/>
      <stop offset="1" stop-color="#00eba4"/>
    </linearGradient>
    <linearGradient id="_名称未設定グラデーション_154" data-name="名称未設定グラデーション 154" x1="38.43" y1="14.06" x2="38.43" y2="-83.83" gradientTransform="translate(128.16 170.95)" gradientUnits="userSpaceOnUse">
      <stop offset="0" stop-color="#ffd44d"/>
      <stop offset="1" stop-color="#d6ff1c"/>
    </linearGradient>
    <linearGradient id="_名称未設定グラデーション_1352" data-name="名称未設定グラデーション 1352" x1="113.67" y1="344.61" x2="175.27" y2="344.61" gradientUnits="userSpaceOnUse">
      <stop offset="0" stop-color="#ff79fe"/>
      <stop offset="1" stop-color="#ff797c"/>
    </linearGradient>
  </defs>
  <g class="cls-3">
    <g id="_レイヤー_1" data-name="レイヤー_1">
      <rect class="cls-2" x="463.25" y="390.51" width="113.68" height="113.68" rx="26.92" ry="26.92" transform="translate(468.65 -236.73) rotate(45)"/>
      <path class="cls-4" d="M73.19,561.56c.71.32,9.92,4.76,26.65,8.88,9.94,2.45,21.95,4.64,35.09,5.46,20.85,1.31,40.21-1.13,57.55-7.25,21.64-7.63,40.09-21,54.88-39.73,41.39,38.41,100.47,32.75,110.3,31.81,98.05-9.4,154.32-108.98,173.55-143.03,56.25-99.55,46.81-200.4,40.11-242.85-4,33.28-72.31,47.85-136.55,63.7-64.25,15.85-161.71,9.06-206.68,112.96-21.12,48.79-27.14,115.81,5.03,161.16,30.58-81.4,154.34-146.76,154.34-146.76,0,0-84.59,77.34-146.91,156.07l-2.57,3.24c-24.7,29.89-59.05,43.72-102.16,41.09-33.56-2.04-60.11-13.82-60.37-13.94l-2.26,9.19Z"/>
      <path class="cls-1" d="M71.57,560.74c.77.14,10.77,2.25,28,2.25,10.24,0,22.42-.74,35.38-3.09,20.55-3.72,38.77-10.71,54.15-20.8,19.18-12.58,33.91-29.98,43.79-51.7,49.37,27.41,105.38,7.79,114.7,4.52,92.96-32.57,123.79-142.71,134.33-180.37,30.83-110.11-2.45-205.78-19.11-245.39,4.07,33.27-58.77,63.75-117.37,94.49-58.59,30.74-154.85,47.45-173.69,159.09-8.84,52.42,1.33,118.94,43.4,155.28,10.23-86.35,114.79-179.39,114.79-179.39,0,0-63.65,95.32-105.35,186.66l-1.72,3.76c-16.84,34.93-46.89,56.56-89.38,64.32-33.08,6.04-61.67.95-61.95.9v9.47Z"/>
      <rect class="cls-5" x="109.76" y="81.68" width="113.68" height="113.68" rx="26.92" ry="26.92" transform="translate(146.74 -77.23) rotate(45)"/>
      <path class="cls-6" d="M147.44,420.61c-.44.12-.68.47-.42,1.4l2.39,8.69c2.14,7.76.36,13.45-8.11,15.78l-1.02.28c-8.25,2.27-13.48-2.35-15.44-9.49l-5.58-20.26,11.84-3.26,5.36,19.47c.16.58.7.81,1.1.7l.13-.04c.49-.13.7-.58.54-1.15l-2.6-9.44c-1.84-6.7.14-13.01,7.72-15.1l1.6-.44c8.03-2.21,13.64,2.06,15.67,9.43l5.98,21.73-12.06,3.32-5.7-20.71c-.18-.67-.6-1.12-1.17-.96l-.22.06ZM144.06,410.76c-5.32,1.46-7.74,5.66-6.03,11.87l2.56,9.31c.65,2.35-.2,3.97-1.84,4.42l-.58.16c-1.69.46-3.46-.1-4.12-2.49l-4.7-17.07-6.83,1.88,4.88,17.74c1.84,6.7,6.18,9.27,12.16,7.62l1.02-.28c6.61-1.82,8.31-5.67,6.42-12.55l-2.45-8.91c-.66-2.39.49-3.95,1.86-4.33l.58-.16c2.04-.56,3.52.13,4.34,3.1l4.93,17.91,7.09-1.95-5.27-19.16c-1.99-7.23-7.02-9.04-12.43-7.55l-1.6.44ZM140.09,380.99l.81,8.75,14.2-1.32,1.19,12.78-39.44,3.67-1.19-12.78,12.69-1.18-.81-8.75-12.69,1.18-1.19-12.78,39.44-3.67,1.19,12.78-14.2,1.32ZM116.57,372.96l.7,7.51,12.64-1.17,1.3,13.97-12.64,1.17.7,7.51,34.13-3.17-.7-7.51-14.15,1.32-1.3-13.97,14.15-1.32-.7-7.51-34.13,3.17ZM154.85,341.49l-7.16-.46-.54,8.45,7.16.46-.82,12.71-24.6-1.59c-10.14-.65-14.64-5.18-13.97-15.7l.28-4.41c.68-10.56,5.68-14.43,15.87-13.77l24.6,1.59-.82,12.71ZM117.82,341.13l-.28,4.41c-.6,9.27,3.12,12.32,11.52,12.86l21.99,1.42.48-7.39-7.16-.46.89-13.77,7.16.46.48-7.39-21.99-1.42c-8.49-.55-12.48,1.92-13.08,11.28ZM129.58,351.01c-3.44-.22-4.86-1.83-4.66-5l.28-4.41c.2-3.17,1.77-4.59,5.26-4.36l7.62.49-.89,13.77-7.62-.49ZM130.29,339.9c-2.07-.13-2.36.22-2.47,1.87l-.28,4.41c-.11,1.65.15,2.04,2.21,2.17l4.96.32.54-8.45-4.96-.32ZM160.83,302.67l-7.11-1.48c-3.11-.65-4.79.88-5.7,5.25l-.67,3.2,11.53,2.4-2.6,12.47-38.77-8.08,4.35-20.85c1.74-8.33,6.17-12.71,15.4-10.79l1.94.4c2.75.57,5.46,1.75,7.25,4.23,3.25-1.39,6.81-1.59,10.01-.92l7.02,1.46-2.65,12.7ZM145.29,293.13c-.85-2.9-3.03-4.63-6.63-5.38l-1.94-.4c-6.21-1.3-10.52.2-12.3,8.76l-3.8,18.24,33.64,7.01,1.52-7.29-11.53-2.4,1.2-5.76c1.14-5.45,3.89-8.3,8.8-7.28l4.55.95,1.58-7.56-4.46-.93c-4.37-.91-7.94,0-10.63,2.06ZM139.51,301l-1.93,9.28-8.24-1.72,2.19-10.49c.48-2.3,1.86-3.28,4.06-2.82l1.35.28c2.57.54,3.19,2.5,2.57,5.47ZM133.97,299.42l-1.48,7.11,3.02.63,1.48-7.11c.26-1.26-.07-1.71-1.01-1.9l-.59-.12c-.72-.15-1.19.31-1.42,1.4ZM144.96,266.5l6.27-18.47,9.89,3.36-6.27,18.47.74.25c.61.21,1.34-.08,2-2.04l5.96-17.56,11.72,3.98-6.17,18.17c-3.16,9.32-9.18,12.43-18.5,9.27l-9.19-3.12c-9.5-3.22-12.74-9.28-9.45-18.95l6.11-17.99,11.63,3.95-5.96,17.56c-.69,2.05-.17,2.66.35,2.84l.87.3ZM165.09,253.85l-4.98,14.68c-1.54,4.53-2.95,4.97-6.7,3.7l-1.83-.62,6.28-18.51-5.14-1.74-6.28,18.51-1.52-.52c-3.96-1.35-4.99-2.62-3.62-6.67l5.15-15.16-6.75-2.29-5.25,15.47c-2.99,8.8.25,13.01,7.83,15.58l9.19,3.12c6.84,2.32,12.05,1.42,15.11-7.6l5.31-15.64-6.8-2.31Z"/>
    </g>
  </g>
</svg>