<?xml version="1.0" encoding="UTF-8"?>
<svg id="_レイヤー_1" data-name="レイヤー_1" xmlns="http://www.w3.org/2000/svg" xmlns:xlink="http://www.w3.org/1999/xlink" viewBox="0 0 839.85 818.68">
  <defs>
    <style>
      .cls-1 {
        fill: url(#_名称未設定グラデーション_6-3);
        opacity: .5;
      }

      .cls-2 {
        fill: url(#_名称未設定グラデーション_6);
        opacity: .3;
      }

      .cls-3 {
        fill: url(#_名称未設定グラデーション_6-7);
        opacity: .9;
      }

      .cls-4 {
        fill: url(#_名称未設定グラデーション_6-2);
        opacity: .4;
      }

      .cls-5 {
        fill: url(#_名称未設定グラデーション_6-8);
      }

      .cls-6 {
        fill: url(#_名称未設定グラデーション_6-4);
        opacity: .6;
      }

      .cls-7 {
        fill: #2f00d3;
      }

      .cls-8 {
        fill: url(#_名称未設定グラデーション_6-5);
        opacity: .7;
      }

      .cls-9 {
        fill: url(#_名称未設定グラデーション_6-6);
        opacity: .8;
      }
    </style>
    <linearGradient id="_名称未設定グラデーション_6" data-name="名称未設定グラデーション 6" x1="386.96" y1="229.25" x2="386.96" y2="-37.4" gradientTransform="translate(1000.37 783.69) rotate(-172.87)" gradientUnits="userSpaceOnUse">
      <stop offset="0" stop-color="#00c74c"/>
      <stop offset="1" stop-color="#00eba4"/>
    </linearGradient>
    <linearGradient id="_名称未設定グラデーション_6-2" data-name="名称未設定グラデーション 6" x1="293.55" y1="551.75" x2="293.55" y2="285.1" gradientTransform="translate(1216.7 577.51) rotate(142.13)" xlink:href="#_名称未設定グラデーション_6"/>
    <linearGradient id="_名称未設定グラデーション_6-3" data-name="名称未設定グラデーション 6" x1="297.56" y1="552.99" x2="297.56" y2="286.34" gradientTransform="translate(1101.35 -37.01) rotate(97.13)" xlink:href="#_名称未設定グラデーション_6"/>
    <linearGradient id="_名称未設定グラデーション_6-4" data-name="名称未設定グラデーション 6" x1="-104.94" y1="524.6" x2="-104.94" y2="257.95" gradientTransform="translate(808.21 -50.98) rotate(52.13)" xlink:href="#_名称未設定グラデーション_6"/>
    <linearGradient id="_名称未設定グラデーション_6-5" data-name="名称未設定グラデーション 6" x1="-106.18" y1="528.62" x2="-106.18" y2="261.96" gradientTransform="translate(368.1 -192.57) rotate(7.13)" xlink:href="#_名称未設定グラデーション_6"/>
    <linearGradient id="_名称未設定グラデーション_6-6" data-name="名称未設定グラデーション 6" x1="-77.79" y1="126.12" x2="-77.79" y2="-140.53" gradientTransform="translate(179.72 357.51) rotate(-37.87)" xlink:href="#_名称未設定グラデーション_6"/>
    <linearGradient id="_名称未設定グラデーション_6-7" data-name="名称未設定グラデーション 6" x1="-81.8" y1="124.88" x2="-81.8" y2="-141.77" gradientTransform="translate(212.53 540.68) rotate(-82.87)" xlink:href="#_名称未設定グラデーション_6"/>
    <linearGradient id="_名称未設定グラデーション_6-8" data-name="名称未設定グラデーション 6" x1="385.72" y1="233.26" x2="385.72" y2="-33.39" gradientTransform="translate(564.97 1086.43) rotate(-127.87)" xlink:href="#_名称未設定グラデーション_6"/>
  </defs>
  <path class="cls-2" d="M778.98,498c-.46-.15-6.49-2.22-17.14-3.56-6.33-.79-13.92-1.27-22.12-.83-13,.71-24.81,3.63-35.1,8.67-12.84,6.3-23.29,15.91-31.08,28.59-28.41-20.77-64.57-12.97-70.59-11.67-60.01,12.95-87.6,78.68-97.03,101.16-27.58,65.71-14.4,127.45-7.17,153.24.06-20.89,41.28-34.88,79.89-49.36,38.62-14.48,99.44-17.36,119.72-84.95,9.52-31.74,8.38-73.66-14.83-99.39-13.01,52.61-84.86,102.06-84.86,102.06,0,0,46.74-54.03,79.59-107.29l1.35-2.19c13.12-20.3,33.37-31.35,60.25-32.86,20.92-1.18,38.21,4.18,38.38,4.24l.73-5.85Z"/>
  <path class="cls-4" d="M733.89,220.12c-.43.22-6.16,3.02-14.64,9.61-5.04,3.92-10.75,8.94-16.22,15.05-8.69,9.69-14.98,20.1-18.69,30.95-4.63,13.53-5.22,27.72-1.77,42.19-34.78,5.41-54.83,36.49-58.16,41.66-33.27,51.59-6.3,117.58,2.92,140.14,26.96,65.97,79.94,100.31,103.29,113.42-14.73-14.81,4.52-53.85,21.59-91.4,17.07-37.54,58.03-82.59,24.59-144.72-15.71-29.17-46.16-58.01-80.77-59.79,28.01,46.4,12.16,132.18,12.16,132.18,0,0-5.16-71.25-19.59-132.14l-.59-2.51c-5.08-23.63,1.43-45.77,19.36-65.84,13.97-15.63,29.98-24.06,30.14-24.14l-3.62-4.66Z"/>
  <path class="cls-1" d="M505.51,55.51c-.15.46-2.22,6.49-3.56,17.14-.79,6.33-1.27,13.92-.83,22.12.71,13,3.63,24.81,8.67,35.1,6.3,12.84,15.91,23.29,28.59,31.08-20.77,28.41-12.97,64.57-11.67,70.59,12.95,60.01,78.68,87.6,101.16,97.03,65.71,27.58,127.45,14.4,153.24,7.17-20.89-.06-34.88-41.28-49.36-79.89-14.48-38.62-17.36-99.44-84.95-119.72-31.74-9.52-73.66-8.38-99.39,14.83,52.61,13.01,102.06,84.86,102.06,84.86,0,0-54.03-46.74-107.29-79.59l-2.19-1.35c-20.3-13.12-31.35-33.37-32.86-60.25-1.18-20.92,4.18-38.21,4.24-38.38l-5.85-.73Z"/>
  <path class="cls-6" d="M227.63,100.6c.22.43,3.02,6.16,9.61,14.64,3.92,5.04,8.94,10.75,15.05,16.22,9.69,8.69,20.1,14.98,30.95,18.69,13.53,4.63,27.72,5.22,42.19,1.77,5.41,34.78,36.49,54.83,41.66,58.16,51.59,33.27,117.58,6.3,140.14-2.92,65.97-26.96,100.31-79.94,113.42-103.29-14.81,14.73-53.85-4.52-91.4-21.59-37.54-17.07-82.59-58.03-144.72-24.59-29.17,15.71-58.01,46.16-59.79,80.77,46.4-28.01,132.18-12.16,132.18-12.16,0,0-71.25,5.16-132.14,19.59l-2.51.59c-23.63,5.08-45.77-1.43-65.84-19.36-15.63-13.97-24.06-29.98-24.14-30.14l-4.66,3.62Z"/>
  <path class="cls-8" d="M63.02,328.98c.46.15,6.49,2.22,17.14,3.56,6.33.79,13.92,1.27,22.12.83,13-.71,24.81-3.63,35.1-8.67,12.84-6.3,23.29-15.91,31.08-28.59,28.41,20.77,64.57,12.97,70.59,11.67,60.01-12.95,87.6-78.68,97.03-101.16,27.58-65.71,14.4-127.45,7.17-153.24-.06,20.89-41.28,34.88-79.89,49.36-38.62,14.48-99.44,17.36-119.72,84.95-9.52,31.74-8.38,73.66,14.83,99.39,13.01-52.61,84.86-102.06,84.86-102.06,0,0-46.74,54.03-79.59,107.29l-1.35,2.19c-13.12,20.3-33.37,31.35-60.25,32.86-20.92,1.18-38.21-4.18-38.38-4.24l-.73,5.85Z"/>
  <path class="cls-9" d="M108.11,606.86c.43-.22,6.16-3.02,14.64-9.61,5.04-3.92,10.75-8.94,16.22-15.05,8.69-9.69,14.98-20.1,18.69-30.95,4.63-13.53,5.22-27.72,1.77-42.19,34.78-5.41,54.83-36.49,58.16-41.66,33.27-51.59,6.3-117.58-2.92-140.14-26.96-65.97-79.94-100.31-103.29-113.42,14.73,14.81-4.52,53.85-21.59,91.4-17.07,37.54-58.03,82.59-24.59,144.72,15.71,29.17,46.16,58.01,80.77,59.79-28.01-46.4-12.16-132.18-12.16-132.18,0,0,5.16,71.25,19.59,132.14l.59,2.51c5.08,23.63-1.43,45.77-19.36,65.84-13.97,15.63-29.98,24.06-30.14,24.14l3.62,4.66Z"/>
  <path class="cls-3" d="M336.49,771.47c.15-.46,2.22-6.49,3.56-17.14.79-6.33,1.27-13.92.83-22.12-.71-13-3.63-24.81-8.67-35.1-6.3-12.84-15.91-23.29-28.59-31.08,20.77-28.41,12.97-64.57,11.67-70.59-12.95-60.01-78.68-87.6-101.16-97.03-65.71-27.58-127.45-14.4-153.24-7.17,20.89.06,34.88,41.28,49.36,79.89,14.48,38.62,17.36,99.44,84.95,119.72,31.74,9.52,73.66,8.38,99.39-14.83-52.61-13.01-102.06-84.86-102.06-84.86,0,0,54.03,46.74,107.29,79.59l2.19,1.35c20.3,13.12,31.35,33.37,32.86,60.25,1.18,20.92-4.18,38.21-4.24,38.38l5.85.73Z"/>
  <path class="cls-5" d="M614.37,726.37c-.22-.43-3.02-6.16-9.61-14.64-3.92-5.04-8.94-10.75-15.05-16.22-9.69-8.69-20.1-14.98-30.95-18.69-13.53-4.63-27.72-5.22-42.19-1.77-5.41-34.78-36.49-54.83-41.66-58.16-51.59-33.27-117.58-6.3-140.14,2.92-65.97,26.96-100.31,79.94-113.42,103.29,14.81-14.73,53.85,4.52,91.4,21.59,37.54,17.07,82.59,58.03,144.72,24.59,29.17-15.71,58.01-46.16,59.79-80.77-46.4,28.01-132.18,12.16-132.18,12.16,0,0,71.25-5.16,132.14-19.59l2.51-.59c23.63-5.08,45.77,1.43,65.84,19.36,15.63,13.97,24.06,29.98,24.14,30.14l4.66-3.62Z"/>
  <g>
    <path class="cls-7" d="M408.47,250.37l14.66-.56,1.72,44.7-14.66.56-1.72-44.7ZM420.23,252.88l-8.63.33,1.49,38.77,8.63-.33-1.49-38.77Z"/>
    <path class="cls-7" d="M471.42,270.39l3.57-11.91,13.75,4.12-9.8,32.74c-2.16,7.23-6.14,9.46-13.52,7.25-4.04-1.21-7.3-3.38-7.73-8.83l-.52-8.79-.03-5.33-1.53,6-3.78,12.61-13.8-4.13,9.79-32.69c2-6.68,5.93-9.3,13.01-7.18,1.5.45,3.44,1.03,5.05,2.17,1.79,1.29,3.1,3.26,3.31,5.99l.42,8.38.1,6.38,1.7-6.77ZM485,264.57l-7.97-2.39-7.91,26.41c-.1.35-.35.44-.65.35-.25-.07-.48-.2-.51-.64l-1.76-25.67c-.19-2.83-1.78-4.22-6.21-5.55-5.13-1.54-7.64-.22-9.27,5.21l-8.94,29.85,8.07,2.42,7.86-26.26c.12-.4.26-.52.61-.41.25.08.42.23.41.61l1.94,25.07c.25,3.33,1.82,5,5.6,6.13,6.48,1.94,8.29-.29,9.77-5.22l8.95-29.9Z"/>
    <path class="cls-7" d="M514.9,300.29l16.89,14.26-8.72,10.33-16.89-14.26-8.69,10.29-11.01-9.29,18.08-21.42c7.11-8.43,14.67-9.47,23.33-2.16l16.69,14.09-9.13,10.81-16.41-13.86c-1.67-1.41-2.53-.71-3.57.52l-.57.67ZM540.36,302.46l-14.39-12.15c-7.63-6.44-13.27-5.08-19.11,1.83l-16.17,19.16,6.4,5.4,8.72-10.33,16.89,14.26,5-5.92-16.89-14.26,2.18-2.58c2.88-3.42,4.83-3.55,7.89-.96l14.11,11.91,5.37-6.36Z"/>
    <path class="cls-7" d="M559.45,322.45l7.71,12.48-38.06,23.52-7.71-12.48,38.06-23.52ZM563.05,333.92l-4.54-7.35-33.01,20.4,4.54,7.35,33.01-20.4Z"/>
    <path class="cls-7" d="M572.97,387.13l12.12-2.75,3.17,14-33.33,7.55c-7.36,1.67-11.25-.7-12.95-8.21-.93-4.11-.64-8.01,3.89-11.07l7.4-4.77,4.63-2.65-5.98,1.62-12.83,2.91-3.18-14.05,33.28-7.54c6.8-1.54,11.01.6,12.65,7.8.34,1.52.79,3.5.6,5.46-.25,2.19-1.32,4.3-3.59,5.83l-7.09,4.49-5.51,3.22,6.73-1.84ZM584.7,396.1l-1.84-8.12-26.89,6.09c-.35.08-.55-.09-.62-.39-.06-.25-.07-.52.31-.76l21.49-14.15c2.37-1.55,2.81-3.62,1.78-8.14-1.18-5.22-3.56-6.77-9.09-5.51l-30.38,6.89,1.86,8.22,26.73-6.06c.41-.09.58-.02.66.33.06.25,0,.48-.33.66l-20.88,14.01c-2.78,1.86-3.46,4.04-2.58,7.89,1.5,6.59,4.32,7.07,9.34,5.94l30.44-6.9Z"/>
    <path class="cls-7" d="M587.86,426.09l-1.54,14.59-44.49-4.69,1.54-14.59,44.48,4.69ZM583.68,437.37l.91-8.59-38.59-4.07-.91,8.59,38.59,4.07Z"/>
    <path class="cls-7" d="M529.87,472.7l6.02-13.32,27.73,12.53,5.46-12.09,12.99,5.87-16.81,37.21-12.99-5.87,5.33-11.8-27.73-12.53ZM563.8,498.93l14.33-31.71-7.54-3.41-5.46,12.09-27.73-12.53-3.56,7.87,27.73,12.53-5.31,11.76,7.54,3.41Z"/>
    <path class="cls-7" d="M526.88,522.47l-16.18,14.99-8.02-8.66,16.18-14.99-.6-.65c-.5-.53-1.38-.64-3.09.95l-15.38,14.25-9.51-10.27,15.92-14.74c8.17-7.57,15.82-7.42,23.38.75l7.46,8.05c7.71,8.32,7.67,16.09-.81,23.93l-15.76,14.6-9.44-10.19,15.38-14.25c1.79-1.66,1.61-2.55,1.18-3.01l-.71-.76ZM500.06,524.21l12.86-11.91c3.97-3.68,5.61-3.36,8.65-.08l1.49,1.6-16.22,15.02,4.17,4.5,16.22-15.02,1.24,1.34c3.22,3.47,3.55,5.29,0,8.58l-13.28,12.3,5.48,5.92,13.55-12.55c7.71-7.14,6.76-13.07.61-19.71l-7.46-8.05c-5.55-5.99-11.22-7.9-19.12-.58l-13.7,12.69,5.51,5.95Z"/>
  </g>
</svg>