<?xml version="1.0" encoding="UTF-8"?>
<svg id="_レイヤー_1" data-name="レイヤー_1" xmlns="http://www.w3.org/2000/svg" viewBox="0 0 256 256">
  <defs>
    <style>
      .cls-1 {
        fill: #ff6c5b;
      }

      .cls-1, .cls-2, .cls-3 {
        stroke: #284800;
        stroke-linecap: round;
        stroke-linejoin: round;
        stroke-width: .31px;
      }

      .cls-4 {
        fill: #284800;
      }

      .cls-2 {
        fill: #009165;
      }

      .cls-5 {
        fill: #fcfcfc;
        stroke: #fcfcfc;
        stroke-miterlimit: 10;
        stroke-width: 8.5px;
      }

      .cls-3 {
        fill: #d9ffa3;
      }
    </style>
  </defs>
  <path class="cls-5" d="M223.52,30.75c-1.18-1.86-3.67-2.38-5.5-1.14l-10.13,6.87s-.03-.05-.05-.07L24.82,160.61s.03.05.05.07l-10.27,6.97c-1.83,1.24-2.26,3.75-.97,5.53,40.07,55.25,117.06,69.04,173.93,30.44,56.87-38.59,72.5-115.23,35.96-172.87Z"/>
  <g>
    <path class="cls-2" d="M218.03,29.6c1.83-1.24,4.32-.72,5.5,1.14,36.54,57.64,20.91,134.28-35.96,172.87s-133.86,24.8-173.93-30.44c-1.3-1.79-.86-4.29.97-5.53L218.03,29.6Z"/>
    <path class="cls-3" d="M207.85,36.4c34.3,50.54,21.13,119.32-29.41,153.62-50.54,34.3-119.32,21.13-153.62-29.41L207.85,36.4Z"/>
    <path class="cls-1" d="M200.48,41.51c31.54,46.48,19.43,109.74-27.05,141.28-46.48,31.54-109.74,19.43-141.28-27.05L200.48,41.51Z"/>
    <path class="cls-4" d="M163.96,161.05c1.26,1.86,3.8,2.35,5.66,1.08,1.86-1.26,2.35-3.8,1.08-5.66-1.26-1.86-9.69-7.03-9.69-7.03,0,0,1.69,9.74,2.95,11.6Z"/>
    <path class="cls-4" d="M187.91,120.67c2.05.93,4.46.03,5.39-2.02.93-2.05.03-4.46-2.02-5.39s-11.93-.97-11.93-.97c0,0,6.51,7.44,8.55,8.38Z"/>
    <path class="cls-4" d="M192.92,83.55c2.25-.1,3.99-1.99,3.9-4.24-.1-2.25-1.99-3.99-4.24-3.9-2.25.1-11.08,4.54-11.08,4.54,0,0,9.17,3.69,11.42,3.59Z"/>
    <path class="cls-4" d="M118.59,182.72c-.18,2.24,1.48,4.21,3.73,4.39s4.21-1.48,4.39-3.73c.18-2.24-3.14-11.55-3.14-11.55,0,0-4.8,8.65-4.98,10.89Z"/>
    <path class="cls-4" d="M71.73,161.93c-.9,2.06.04,4.46,2.11,5.36s4.46-.04,5.36-2.11.76-11.95.76-11.95c0,0-7.33,6.63-8.23,8.69Z"/>
  </g>
</svg>